<?xml version="1.0" encoding="UTF-8" standalone="no"?>
<!DOCTYPE svg PUBLIC "-//W3C//DTD SVG 1.1//EN" "http://www.w3.org/Graphics/SVG/1.1/DTD/svg11.dtd">
<svg xmlns="http://www.w3.org/2000/svg" version="1.1" viewBox="19.00 0.00 63.00 100.00">
<g stroke-width="2.00" fill="none" stroke-linecap="butt">
<path stroke="#000000" vector-effect="non-scaling-stroke" d="
  M 66.05 12.15
  Q 62.50 8.79 58.77 12.01
  A 0.74 0.74 0.0 0 1 57.78 12.00
  Q 54.58 9.03 51.21 11.82
  Q 50.64 12.29 49.98 11.94
  L 47.28 10.46
  Q 46.73 10.16 46.15 10.40
  L 42.28 11.99
  A 0.53 0.51 48.6 0 1 41.81 11.95
  L 39.35 10.47
  Q 38.80 10.14 38.21 10.38
  L 34.45 11.95
  A 0.54 0.54 0.0 0 1 33.97 11.91
  C 32.45 10.91 31.34 10.29 29.44 10.73
  C 21.90 12.48 19.48 17.55 19.48 25.05
  Q 19.48 52.15 19.48 79.25
  Q 19.48 86.29 25.01 89.18
  Q 27.58 90.53 32.73 90.53
  Q 50.16 90.54 67.60 90.53
  Q 73.01 90.53 75.66 89.17
  Q 81.25 86.29 81.23 79.24
  Q 81.19 53.43 81.23 27.58
  Q 81.24 20.08 79.78 17.11
  C 78.06 13.62 70.86 7.80 66.78 12.13
  Q 66.43 12.50 66.05 12.15"
/>
<path stroke="#000095" vector-effect="non-scaling-stroke" d="
  M 38.2666 18.4275
  A 2.60 1.05 92.5 0 0 39.4290 15.8758
  A 2.60 1.05 92.5 0 0 38.4934 13.2325
  A 2.60 1.05 92.5 0 0 37.3310 15.7842
  A 2.60 1.05 92.5 0 0 38.2666 18.4275"
/>
<path stroke="#000095" vector-effect="non-scaling-stroke" d="
  M 47.3583 14.1750
  A 0.90 0.90 0.0 0 0 46.4630 13.2703
  L 46.3430 13.2697
  A 0.90 0.90 0.0 0 0 45.4383 14.1650
  L 45.4217 17.3450
  A 0.90 0.90 0.0 0 0 46.3170 18.2497
  L 46.4370 18.2503
  A 0.90 0.90 0.0 0 0 47.3417 17.3550
  L 47.3583 14.1750"
/>
<path stroke="#000095" vector-effect="non-scaling-stroke" d="
  M 55.3252 14.2535
  A 0.96 0.96 0.0 0 0 54.3686 13.2902
  L 54.2686 13.2898
  A 0.96 0.96 0.0 0 0 53.3052 14.2465
  L 53.2948 17.2265
  A 0.96 0.96 0.0 0 0 54.2514 18.1898
  L 54.3514 18.1902
  A 0.96 0.96 0.0 0 0 55.3148 17.2335
  L 55.3252 14.2535"
/>
<path stroke="#000095" vector-effect="non-scaling-stroke" d="
  M 71.2625 14.3218
  A 0.92 0.92 0.0 0 0 70.3442 13.4002
  L 70.1442 13.3998
  A 0.92 0.92 0.0 0 0 69.2225 14.3182
  L 69.2175 17.2382
  A 0.92 0.92 0.0 0 0 70.1358 18.1598
  L 70.3358 18.1602
  A 0.92 0.92 0.0 0 0 71.2575 17.2418
  L 71.2625 14.3218"
/>
<path stroke="#000095" vector-effect="non-scaling-stroke" d="
  M 31.4295 14.3456
  A 0.91 0.91 0.0 0 0 30.5069 13.4484
  L 30.2469 13.4520
  A 0.91 0.91 0.0 0 0 29.3497 14.3747
  L 29.3905 17.2944
  A 0.91 0.91 0.0 0 0 30.3131 18.1916
  L 30.5731 18.1880
  A 0.91 0.91 0.0 0 0 31.4703 17.2653
  L 31.4295 14.3456"
/>
<path stroke="#000095" vector-effect="non-scaling-stroke" d="
  M 63.3331 14.2990
  A 0.87 0.87 0.0 0 0 62.4707 13.4215
  L 62.1507 13.4187
  A 0.87 0.87 0.0 0 0 61.2731 14.2811
  L 61.2469 17.2810
  A 0.87 0.87 0.0 0 0 62.1093 18.1585
  L 62.4293 18.1613
  A 0.87 0.87 0.0 0 0 63.3069 17.2989
  L 63.3331 14.2990"
/>
<path stroke="#000095" vector-effect="non-scaling-stroke" d="
  M 49.50 15.83
  C 49.63 18.44 48.21 23.03 44.64 20.42
  C 43.18 19.36 43.18 17.22 42.99 15.53
  Q 42.94 15.15 42.57 15.08
  L 42.30 15.02
  Q 41.88 14.94 41.86 15.37
  C 41.58 23.43 34.01 22.05 35.32 16.03
  Q 35.48 15.29 34.73 15.30
  L 34.30 15.31
  A 0.66 0.66 0.0 0 0 33.65 15.96
  C 33.55 23.28 26.42 22.21 27.28 15.82
  Q 27.36 15.24 26.84 15.53
  Q 23.02 17.66 23.01 21.50
  Q 22.96 49.51 22.98 77.51
  C 22.99 82.68 24.50 87.23 30.25 87.23
  Q 49.20 87.22 68.17 87.20
  C 74.05 87.19 77.80 85.24 77.80 79.00
  Q 77.79 50.25 77.73 21.50
  Q 77.73 17.89 73.90 15.58
  Q 73.33 15.24 73.38 15.90
  C 73.85 22.50 67.01 23.14 66.92 15.62
  Q 66.91 15.17 66.49 15.03
  Q 66.37 14.98 66.25 14.94
  A 0.42 0.42 0.0 0 0 65.69 15.27
  C 65.36 17.28 65.41 20.61 62.76 20.99
  C 59.24 21.49 59.01 17.61 58.82 15.28
  A 0.56 0.56 0.0 0 0 57.70 15.24
  L 57.09 19.20
  A 2.29 2.29 0.0 0 1 54.28 21.08
  Q 50.50 20.15 51.16 16.12
  A 0.35 0.35 0.0 0 0 51.03 15.78
  L 50.40 15.33
  A 0.57 0.57 0.0 0 0 49.50 15.83"
/>
<path stroke="#000095" vector-effect="non-scaling-stroke" d="
  M 37.92 78.24
  Q 42.57 82.44 47.99 79.01
  C 52.40 76.22 56.88 84.24 62.78 78.28
  Q 63.14 77.92 63.65 77.97
  C 66.18 78.22 68.86 79.66 70.63 76.89
  Q 71.42 75.66 71.12 73.00
  C 70.24 65.16 70.13 58.71 66.82 50.52
  C 65.37 46.94 65.83 43.01 64.38 39.56
  C 57.78 23.89 36.69 28.35 35.12 45.08
  Q 34.84 48.03 34.10 50.12
  C 31.16 58.37 30.53 65.64 29.76 74.29
  C 29.30 79.40 33.75 78.58 37.01 77.98
  Q 37.53 77.88 37.92 78.24"
/>
<path stroke="#000095" vector-effect="non-scaling-stroke" d="
  M 49.28 75.17
  C 52.66 74.77 54.96 76.57 57.82 77.34
  A 0.97 0.96 34.9 0 0 58.63 77.20
  L 62.61 74.46
  A 1.16 1.14 -54.0 0 1 63.58 74.30
  L 66.98 75.26
  Q 67.58 75.42 67.59 74.81
  Q 67.75 62.59 63.62 51.25
  C 62.47 48.09 62.61 44.70 61.70 41.99
  C 58.26 31.65 44.96 29.82 39.98 39.97
  C 38.42 43.18 38.73 47.51 37.58 50.55
  Q 33.10 62.42 33.47 73.86
  Q 33.55 76.28 35.54 74.90
  C 37.24 73.72 38.47 74.46 40.01 75.75
  C 43.87 78.98 45.75 75.59 49.28 75.17"
/>
<path stroke="#000095" vector-effect="non-scaling-stroke" d="
  M 49.06 43.23
  A 3.38 3.38 0.0 0 0 45.68 39.85
  A 3.38 3.38 0.0 0 0 42.30 43.23
  A 3.38 3.38 0.0 0 0 45.68 46.61
  A 3.38 3.38 0.0 0 0 49.06 43.23"
/>
<path stroke="#000095" vector-effect="non-scaling-stroke" d="
  M 58.53 43.25
  A 3.38 3.38 0.0 0 0 55.15 39.87
  A 3.38 3.38 0.0 0 0 51.77 43.25
  A 3.38 3.38 0.0 0 0 55.15 46.63
  A 3.38 3.38 0.0 0 0 58.53 43.25"
/>
<path stroke="#000095" vector-effect="non-scaling-stroke" d="
  M 46.91 50.76
  Q 51.79 51.99 55.50 49.13
  A 0.56 0.55 -72.5 0 0 55.00 48.16
  Q 50.42 49.62 45.78 48.46
  A 0.56 0.56 0.0 0 0 45.10 49.16
  Q 45.45 50.40 46.91 50.76"
/>
</g>
<path fill="#fff" d="
  M 0.00 0.00
  L 100.00 0.00
  L 100.00 100.00
  L 0.00 100.00
  L 0.00 0.00
  Z
  M 66.05 12.15
  Q 62.50 8.79 58.77 12.01
  A 0.74 0.74 0.0 0 1 57.78 12.00
  Q 54.58 9.03 51.21 11.82
  Q 50.64 12.29 49.98 11.94
  L 47.28 10.46
  Q 46.73 10.16 46.15 10.40
  L 42.28 11.99
  A 0.53 0.51 48.6 0 1 41.81 11.95
  L 39.35 10.47
  Q 38.80 10.14 38.21 10.38
  L 34.45 11.95
  A 0.54 0.54 0.0 0 1 33.97 11.91
  C 32.45 10.91 31.34 10.29 29.44 10.73
  C 21.90 12.48 19.48 17.55 19.48 25.05
  Q 19.48 52.15 19.48 79.25
  Q 19.48 86.29 25.01 89.18
  Q 27.58 90.53 32.73 90.53
  Q 50.16 90.54 67.60 90.53
  Q 73.01 90.53 75.66 89.17
  Q 81.25 86.29 81.23 79.24
  Q 81.19 53.43 81.23 27.58
  Q 81.24 20.08 79.78 17.11
  C 78.06 13.62 70.86 7.80 66.78 12.13
  Q 66.43 12.50 66.05 12.15
  Z"
/>
<path fill="#00002d" d="
  M 66.78 12.13
  C 70.86 7.80 78.06 13.62 79.78 17.11
  Q 81.24 20.08 81.23 27.58
  Q 81.19 53.43 81.23 79.24
  Q 81.25 86.29 75.66 89.17
  Q 73.01 90.53 67.60 90.53
  Q 50.16 90.54 32.73 90.53
  Q 27.58 90.53 25.01 89.18
  Q 19.48 86.29 19.48 79.25
  Q 19.48 52.15 19.48 25.05
  C 19.48 17.55 21.90 12.48 29.44 10.73
  C 31.34 10.29 32.45 10.91 33.97 11.91
  A 0.54 0.54 0.0 0 0 34.45 11.95
  L 38.21 10.38
  Q 38.80 10.14 39.35 10.47
  L 41.81 11.95
  A 0.53 0.51 48.6 0 0 42.28 11.99
  L 46.15 10.40
  Q 46.73 10.16 47.28 10.46
  L 49.98 11.94
  Q 50.64 12.29 51.21 11.82
  Q 54.58 9.03 57.78 12.00
  A 0.74 0.74 0.0 0 0 58.77 12.01
  Q 62.50 8.79 66.05 12.15
  Q 66.43 12.50 66.78 12.13
  Z
  M 38.2666 18.4275
  A 2.60 1.05 92.5 0 0 39.4290 15.8758
  A 2.60 1.05 92.5 0 0 38.4934 13.2325
  A 2.60 1.05 92.5 0 0 37.3310 15.7842
  A 2.60 1.05 92.5 0 0 38.2666 18.4275
  Z
  M 47.3583 14.1750
  A 0.90 0.90 0.0 0 0 46.4630 13.2703
  L 46.3430 13.2697
  A 0.90 0.90 0.0 0 0 45.4383 14.1650
  L 45.4217 17.3450
  A 0.90 0.90 0.0 0 0 46.3170 18.2497
  L 46.4370 18.2503
  A 0.90 0.90 0.0 0 0 47.3417 17.3550
  L 47.3583 14.1750
  Z
  M 55.3252 14.2535
  A 0.96 0.96 0.0 0 0 54.3686 13.2902
  L 54.2686 13.2898
  A 0.96 0.96 0.0 0 0 53.3052 14.2465
  L 53.2948 17.2265
  A 0.96 0.96 0.0 0 0 54.2514 18.1898
  L 54.3514 18.1902
  A 0.96 0.96 0.0 0 0 55.3148 17.2335
  L 55.3252 14.2535
  Z
  M 71.2625 14.3218
  A 0.92 0.92 0.0 0 0 70.3442 13.4002
  L 70.1442 13.3998
  A 0.92 0.92 0.0 0 0 69.2225 14.3182
  L 69.2175 17.2382
  A 0.92 0.92 0.0 0 0 70.1358 18.1598
  L 70.3358 18.1602
  A 0.92 0.92 0.0 0 0 71.2575 17.2418
  L 71.2625 14.3218
  Z
  M 31.4295 14.3456
  A 0.91 0.91 0.0 0 0 30.5069 13.4484
  L 30.2469 13.4520
  A 0.91 0.91 0.0 0 0 29.3497 14.3747
  L 29.3905 17.2944
  A 0.91 0.91 0.0 0 0 30.3131 18.1916
  L 30.5731 18.1880
  A 0.91 0.91 0.0 0 0 31.4703 17.2653
  L 31.4295 14.3456
  Z
  M 63.3331 14.2990
  A 0.87 0.87 0.0 0 0 62.4707 13.4215
  L 62.1507 13.4187
  A 0.87 0.87 0.0 0 0 61.2731 14.2811
  L 61.2469 17.2810
  A 0.87 0.87 0.0 0 0 62.1093 18.1585
  L 62.4293 18.1613
  A 0.87 0.87 0.0 0 0 63.3069 17.2989
  L 63.3331 14.2990
  Z
  M 49.50 15.83
  C 49.63 18.44 48.21 23.03 44.64 20.42
  C 43.18 19.36 43.18 17.22 42.99 15.53
  Q 42.94 15.15 42.57 15.08
  L 42.30 15.02
  Q 41.88 14.94 41.86 15.37
  C 41.58 23.43 34.01 22.05 35.32 16.03
  Q 35.48 15.29 34.73 15.30
  L 34.30 15.31
  A 0.66 0.66 0.0 0 0 33.65 15.96
  C 33.55 23.28 26.42 22.21 27.28 15.82
  Q 27.36 15.24 26.84 15.53
  Q 23.02 17.66 23.01 21.50
  Q 22.96 49.51 22.98 77.51
  C 22.99 82.68 24.50 87.23 30.25 87.23
  Q 49.20 87.22 68.17 87.20
  C 74.05 87.19 77.80 85.24 77.80 79.00
  Q 77.79 50.25 77.73 21.50
  Q 77.73 17.89 73.90 15.58
  Q 73.33 15.24 73.38 15.90
  C 73.85 22.50 67.01 23.14 66.92 15.62
  Q 66.91 15.17 66.49 15.03
  Q 66.37 14.98 66.25 14.94
  A 0.42 0.42 0.0 0 0 65.69 15.27
  C 65.36 17.28 65.41 20.61 62.76 20.99
  C 59.24 21.49 59.01 17.61 58.82 15.28
  A 0.56 0.56 0.0 0 0 57.70 15.24
  L 57.09 19.20
  A 2.29 2.29 0.0 0 1 54.28 21.08
  Q 50.50 20.15 51.16 16.12
  A 0.35 0.35 0.0 0 0 51.03 15.78
  L 50.40 15.33
  A 0.57 0.57 0.0 0 0 49.50 15.83
  Z"
/>
<ellipse fill="#f3fcfc" cx="0.00" cy="0.00" transform="translate(38.38,15.83) rotate(92.5)" rx="2.60" ry="1.05"/>
<rect fill="#f3fcfc" x="-0.96" y="-2.49" transform="translate(46.39,15.76) rotate(0.3)" width="1.92" height="4.98" rx="0.90"/>
<rect fill="#f3fcfc" x="-1.01" y="-2.45" transform="translate(54.31,15.74) rotate(0.2)" width="2.02" height="4.90" rx="0.96"/>
<rect fill="#f3fcfc" x="-1.02" y="-2.38" transform="translate(70.24,15.78) rotate(0.1)" width="2.04" height="4.76" rx="0.92"/>
<rect fill="#f3fcfc" x="-1.04" y="-2.37" transform="translate(30.41,15.82) rotate(-0.8)" width="2.08" height="4.74" rx="0.91"/>
<rect fill="#f3fcfc" x="-1.03" y="-2.37" transform="translate(62.29,15.79) rotate(0.5)" width="2.06" height="4.74" rx="0.87"/>
<path fill="#f3fcfc" d="
  M 44.64 20.42
  C 48.21 23.03 49.63 18.44 49.50 15.83
  A 0.57 0.57 0.0 0 1 50.40 15.33
  L 51.03 15.78
  A 0.35 0.35 0.0 0 1 51.16 16.12
  Q 50.50 20.15 54.28 21.08
  A 2.29 2.29 0.0 0 0 57.09 19.20
  L 57.70 15.24
  A 0.56 0.56 0.0 0 1 58.82 15.28
  C 59.01 17.61 59.24 21.49 62.76 20.99
  C 65.41 20.61 65.36 17.28 65.69 15.27
  A 0.42 0.42 0.0 0 1 66.25 14.94
  Q 66.37 14.98 66.49 15.03
  Q 66.91 15.17 66.92 15.62
  C 67.01 23.14 73.85 22.50 73.38 15.90
  Q 73.33 15.24 73.90 15.58
  Q 77.73 17.89 77.73 21.50
  Q 77.79 50.25 77.80 79.00
  C 77.80 85.24 74.05 87.19 68.17 87.20
  Q 49.20 87.22 30.25 87.23
  C 24.50 87.23 22.99 82.68 22.98 77.51
  Q 22.96 49.51 23.01 21.50
  Q 23.02 17.66 26.84 15.53
  Q 27.36 15.24 27.28 15.82
  C 26.42 22.21 33.55 23.28 33.65 15.96
  A 0.66 0.66 0.0 0 1 34.30 15.31
  L 34.73 15.30
  Q 35.48 15.29 35.32 16.03
  C 34.01 22.05 41.58 23.43 41.86 15.37
  Q 41.88 14.94 42.30 15.02
  L 42.57 15.08
  Q 42.94 15.15 42.99 15.53
  C 43.18 17.22 43.18 19.36 44.64 20.42
  Z
  M 37.92 78.24
  Q 42.57 82.44 47.99 79.01
  C 52.40 76.22 56.88 84.24 62.78 78.28
  Q 63.14 77.92 63.65 77.97
  C 66.18 78.22 68.86 79.66 70.63 76.89
  Q 71.42 75.66 71.12 73.00
  C 70.24 65.16 70.13 58.71 66.82 50.52
  C 65.37 46.94 65.83 43.01 64.38 39.56
  C 57.78 23.89 36.69 28.35 35.12 45.08
  Q 34.84 48.03 34.10 50.12
  C 31.16 58.37 30.53 65.64 29.76 74.29
  C 29.30 79.40 33.75 78.58 37.01 77.98
  Q 37.53 77.88 37.92 78.24
  Z"
/>
<path fill="#00002d" d="
  M 37.01 77.98
  C 33.75 78.58 29.30 79.40 29.76 74.29
  C 30.53 65.64 31.16 58.37 34.10 50.12
  Q 34.84 48.03 35.12 45.08
  C 36.69 28.35 57.78 23.89 64.38 39.56
  C 65.83 43.01 65.37 46.94 66.82 50.52
  C 70.13 58.71 70.24 65.16 71.12 73.00
  Q 71.42 75.66 70.63 76.89
  C 68.86 79.66 66.18 78.22 63.65 77.97
  Q 63.14 77.92 62.78 78.28
  C 56.88 84.24 52.40 76.22 47.99 79.01
  Q 42.57 82.44 37.92 78.24
  Q 37.53 77.88 37.01 77.98
  Z
  M 49.28 75.17
  C 52.66 74.77 54.96 76.57 57.82 77.34
  A 0.97 0.96 34.9 0 0 58.63 77.20
  L 62.61 74.46
  A 1.16 1.14 -54.0 0 1 63.58 74.30
  L 66.98 75.26
  Q 67.58 75.42 67.59 74.81
  Q 67.75 62.59 63.62 51.25
  C 62.47 48.09 62.61 44.70 61.70 41.99
  C 58.26 31.65 44.96 29.82 39.98 39.97
  C 38.42 43.18 38.73 47.51 37.58 50.55
  Q 33.10 62.42 33.47 73.86
  Q 33.55 76.28 35.54 74.90
  C 37.24 73.72 38.47 74.46 40.01 75.75
  C 43.87 78.98 45.75 75.59 49.28 75.17
  Z"
/>
<path fill="#f3fcfc" d="
  M 57.82 77.34
  C 54.96 76.57 52.66 74.77 49.28 75.17
  C 45.75 75.59 43.87 78.98 40.01 75.75
  C 38.47 74.46 37.24 73.72 35.54 74.90
  Q 33.55 76.28 33.47 73.86
  Q 33.10 62.42 37.58 50.55
  C 38.73 47.51 38.42 43.18 39.98 39.97
  C 44.96 29.82 58.26 31.65 61.70 41.99
  C 62.61 44.70 62.47 48.09 63.62 51.25
  Q 67.75 62.59 67.59 74.81
  Q 67.58 75.42 66.98 75.26
  L 63.58 74.30
  A 1.16 1.14 -54.0 0 0 62.61 74.46
  L 58.63 77.20
  A 0.97 0.96 34.9 0 1 57.82 77.34
  Z
  M 49.06 43.23
  A 3.38 3.38 0.0 0 0 45.68 39.85
  A 3.38 3.38 0.0 0 0 42.30 43.23
  A 3.38 3.38 0.0 0 0 45.68 46.61
  A 3.38 3.38 0.0 0 0 49.06 43.23
  Z
  M 58.53 43.25
  A 3.38 3.38 0.0 0 0 55.15 39.87
  A 3.38 3.38 0.0 0 0 51.77 43.25
  A 3.38 3.38 0.0 0 0 55.15 46.63
  A 3.38 3.38 0.0 0 0 58.53 43.25
  Z
  M 46.91 50.76
  Q 51.79 51.99 55.50 49.13
  A 0.56 0.55 -72.5 0 0 55.00 48.16
  Q 50.42 49.62 45.78 48.46
  A 0.56 0.56 0.0 0 0 45.10 49.16
  Q 45.45 50.40 46.91 50.76
  Z"
/>
<circle fill="#00002d" cx="45.68" cy="43.23" r="3.38"/>
<circle fill="#00002d" cx="55.15" cy="43.25" r="3.38"/>
<path fill="#00002d" d="
  M 46.91 50.76
  Q 45.45 50.40 45.10 49.16
  A 0.56 0.56 0.0 0 1 45.78 48.46
  Q 50.42 49.62 55.00 48.16
  A 0.56 0.55 -72.5 0 1 55.50 49.13
  Q 51.79 51.99 46.91 50.76
  Z"
/>
</svg>
