<svg viewBox="-3 0 395.801 100" xmlns="http://www.w3.org/2000/svg">
    <g id="svgGroup" stroke-linecap="round" fill-rule="evenodd"
        style="stroke:#000;stroke-width:1.0mm;">
        <path
            d="M 72.501 4.1 L 72.501 31.2 A 46.809 46.809 0 0 1 78.599 27.617 Q 84.697 24.668 90.2 24.668 A 19.527 19.527 0 0 1 96.201 25.6 Q 98.601 26.3 100.351 27.65 Q 101.802 28.769 102.944 30.817 A 16.605 16.605 0 0 1 103.401 31.7 A 12.558 12.558 0 0 1 104.406 34.828 Q 104.664 36.194 104.696 37.751 A 21.649 21.649 0 0 1 104.701 38.2 L 104.701 73 L 112.201 73.5 A 1.133 1.133 0 0 1 112.2 73.545 Q 112.19 73.742 112.125 74.669 A 461.468 461.468 0 0 1 112.101 75 L 92.101 75.1 Q 92.101 74.2 92.201 73.7 L 97.401 73 Q 97.902 73 98.124 72.373 A 2.338 2.338 0 0 0 98.201 72.1 L 98.201 40.8 A 24.372 24.372 0 0 0 98.007 37.642 Q 97.75 35.676 97.151 34.05 A 17.297 17.297 0 0 0 96.461 32.42 Q 96.075 31.633 95.65 31.017 A 6.731 6.731 0 0 0 94.701 29.9 A 9.699 9.699 0 0 0 91.534 27.95 A 11.068 11.068 0 0 0 91.401 27.9 Q 89.234 27.067 87.484 27.067 A 6.865 6.865 0 0 0 86.801 27.1 A 20.867 20.867 0 0 0 80.92 28.195 Q 76.919 29.511 72.501 32.4 L 72.501 73 L 80.001 73.5 A 1.133 1.133 0 0 1 80 73.545 Q 79.99 73.742 79.925 74.669 A 461.468 461.468 0 0 1 79.901 75 L 59.901 75.1 Q 59.901 74.2 60.001 73.7 L 65.201 73 A 0.79 0.79 0 0 0 65.864 72.471 Q 65.937 72.294 65.971 72.06 A 3.206 3.206 0 0 0 66.001 71.6 L 66.001 3.6 A 3.012 3.012 0 0 0 65.98 3.226 Q 65.931 2.84 65.771 2.659 A 0.471 0.471 0 0 0 65.401 2.5 L 59.401 2.3 L 59.501 0.9 Q 63.912 0.165 66.589 0.03 A 22.247 22.247 0 0 1 67.701 0 A 9.432 9.432 0 0 1 68.989 0.081 Q 70.468 0.286 71.234 1.006 A 2.47 2.47 0 0 1 71.501 1.3 Q 72.501 2.6 72.501 4.1 Z M 34.801 46.2 L 52.801 46.1 A 1.133 1.133 0 0 0 52.803 46.145 Q 52.812 46.342 52.878 47.269 A 461.468 461.468 0 0 0 52.901 47.6 L 48.901 48.1 L 48.901 72.9 A 8.803 8.803 0 0 1 48.065 73.137 Q 46 73.636 40.773 74.33 A 270.326 270.326 0 0 1 39.851 74.45 Q 32.664 75.379 28.106 75.4 A 45.432 45.432 0 0 1 27.901 75.4 A 54.993 54.993 0 0 1 24.233 75.284 Q 21.867 75.126 19.901 74.75 Q 16.501 74.1 12.701 72 Q 8.901 69.9 6.251 66.45 Q 4.193 63.771 2.648 59.554 A 45.047 45.047 0 0 1 1.801 57 Q 0.001 51 0.001 43 A 62.408 62.408 0 0 1 0.873 32.224 Q 1.92 26.264 4.221 21.512 A 30.831 30.831 0 0 1 8.101 15.4 A 27.731 27.731 0 0 1 28.379 5.107 A 39.031 39.031 0 0 1 31.301 5 A 54.879 54.879 0 0 1 36.601 5.269 A 70.549 70.549 0 0 1 41.051 5.85 Q 45.009 6.491 47.234 7.103 A 16.799 16.799 0 0 1 48.501 7.5 L 49.701 21.9 L 47.801 22.6 L 46.501 11.9 A 39.167 39.167 0 0 0 41.051 8.769 Q 37.949 7.325 35.007 6.762 A 19.659 19.659 0 0 0 31.301 6.4 Q 20.629 6.4 14.149 14.785 A 27.532 27.532 0 0 0 13.401 15.8 A 31.593 31.593 0 0 0 9.19 24.624 Q 7.883 28.818 7.292 33.92 A 78.977 78.977 0 0 0 6.801 43 Q 6.801 60.075 12.988 67.589 A 15.756 15.756 0 0 0 16.701 70.9 A 23.327 23.327 0 0 0 18.976 72.179 Q 20.159 72.754 21.264 73.092 A 12.055 12.055 0 0 0 22.251 73.35 A 19.39 19.39 0 0 0 24.045 73.64 Q 26.239 73.9 29.401 73.9 A 47.09 47.09 0 0 0 32.329 73.797 Q 35.526 73.596 40.025 73.001 A 214.147 214.147 0 0 0 42.901 72.6 L 43.301 49.6 A 1.767 1.767 0 0 0 43.221 49.048 Q 42.992 48.349 42.101 48.2 L 34.901 47.7 A 6.417 6.417 0 0 1 34.84 47.208 Q 34.818 46.958 34.809 46.67 A 14.082 14.082 0 0 1 34.801 46.2 Z M 200.701 26.6 L 202.501 27.3 L 202.501 38.8 L 200.601 39.5 L 200.201 31 Q 195.457 27.238 191.984 26.553 A 7.665 7.665 0 0 0 190.501 26.4 A 15.058 15.058 0 0 0 186.845 26.82 A 10.493 10.493 0 0 0 181.801 29.65 A 10.914 10.914 0 0 0 178.84 35.508 A 15.6 15.6 0 0 0 178.601 38.3 A 5.649 5.649 0 0 0 180.559 42.677 A 7.876 7.876 0 0 0 181.351 43.3 A 19.575 19.575 0 0 0 184.782 45.173 A 26.31 26.31 0 0 0 188.001 46.3 Q 191.901 47.4 195.801 48.75 Q 199.701 50.1 202.451 53.15 A 10.476 10.476 0 0 1 204.952 58.32 A 14.852 14.852 0 0 1 205.201 61.1 A 14.16 14.16 0 0 1 204.384 66.009 A 12.32 12.32 0 0 1 200.251 71.55 A 16.5 16.5 0 0 1 194.966 74.232 Q 191.213 75.4 186.201 75.4 A 31.734 31.734 0 0 1 179.442 74.718 A 22.276 22.276 0 0 1 171.101 71.1 L 171.101 59.6 L 172.901 58.9 L 173.401 67.4 A 8.813 8.813 0 0 0 175.189 69.666 Q 176.079 70.493 177.266 71.228 A 18.38 18.38 0 0 0 178.451 71.9 A 19.041 19.041 0 0 0 181.342 73.13 Q 183.015 73.675 184.583 73.777 A 11.055 11.055 0 0 0 185.301 73.8 Q 185.901 73.8 186.501 73.7 A 14.511 14.511 0 0 0 190.968 72.948 A 12.207 12.207 0 0 0 195.201 70.45 A 10.08 10.08 0 0 0 198.167 65.516 Q 198.618 63.885 198.688 61.934 A 20.346 20.346 0 0 0 198.701 61.2 A 6.936 6.936 0 0 0 195.97 55.69 Q 193.634 53.745 189.301 52.5 Q 185.401 51.4 181.501 50.1 Q 177.601 48.8 174.851 46 Q 172.101 43.2 172.101 38.7 A 13.479 13.479 0 0 1 173.039 33.588 A 12.443 12.443 0 0 1 177.001 28.45 A 17.624 17.624 0 0 1 184.552 25.055 A 24.666 24.666 0 0 1 189.401 24.6 A 33.43 33.43 0 0 1 199.233 26.118 A 38.442 38.442 0 0 1 200.701 26.6 Z M 264.601 99.9 L 243.501 100 L 243.601 98.6 L 248.801 97.9 Q 249.541 97.818 249.673 96.925 A 2.923 2.923 0 0 0 249.701 96.5 L 249.701 28.3 A 2.659 2.659 0 0 0 249.613 28.011 Q 249.421 27.5 249.101 27.5 L 243.001 27.3 L 243.101 25.9 A 196.614 196.614 0 0 1 245.835 25.528 Q 249.218 25.093 251.01 25.016 A 16.355 16.355 0 0 1 251.701 25 A 7.24 7.24 0 0 1 252.892 25.091 Q 254.282 25.324 255.001 26.15 Q 256.001 27.3 256.201 28.7 A 24.424 24.424 0 0 1 262.911 25.179 A 21.101 21.101 0 0 1 269.601 24.1 Q 276.401 24.1 282.401 28.3 A 12.603 12.603 0 0 1 285.248 31.194 Q 286.561 33.012 287.551 35.5 A 25.623 25.623 0 0 1 288.934 40.464 Q 289.501 43.627 289.501 47.4 A 42.669 42.669 0 0 1 288.873 54.98 Q 288.124 59.117 286.486 62.364 A 19.88 19.88 0 0 1 282.901 67.4 A 25.231 25.231 0 0 1 266.937 74.833 A 34.419 34.419 0 0 1 263.501 75 A 54.115 54.115 0 0 1 258.082 74.719 A 62.113 62.113 0 0 1 256.201 74.5 L 256.201 97.9 L 264.701 98.4 A 462.119 462.119 0 0 0 264.678 98.73 Q 264.608 99.716 264.602 99.876 A 0.67 0.67 0 0 0 264.601 99.9 Z M 329.001 71.2 L 328.701 71.2 Q 319.701 75.4 311.201 75.4 Q 298.782 75.4 297.262 66.246 A 15.312 15.312 0 0 1 297.101 64.9 A 10.283 10.283 0 0 1 297.02 64.145 A 8.032 8.032 0 0 1 297.001 63.6 Q 297.001 55.9 307.101 53.3 Q 312.041 52.23 323.488 50.821 A 691.15 691.15 0 0 1 328.701 50.2 L 328.701 41.4 Q 328.701 37.2 327.701 34.2 A 23.786 23.786 0 0 0 327.065 32.496 Q 326.331 30.753 325.501 29.75 Q 324.301 28.3 322.401 27.5 A 13.014 13.014 0 0 0 318.754 26.588 A 16.073 16.073 0 0 0 317.051 26.5 Q 314.101 26.5 310.301 28 A 40.474 40.474 0 0 0 302.227 32.479 A 36.808 36.808 0 0 0 300.501 33.8 L 300.101 41.6 L 298.201 42.1 L 298.201 30 L 299.201 29.6 Q 307.001 26.2 311.101 25.5 Q 315.201 24.8 317.101 24.75 A 47.521 47.521 0 0 1 318.351 24.734 A 42.082 42.082 0 0 1 320.751 24.8 A 12.728 12.728 0 0 1 321.947 24.931 Q 323.376 25.15 325.301 25.7 Q 328.101 26.5 330.151 27.95 Q 332.009 29.264 333.415 31.769 A 17.66 17.66 0 0 1 333.701 32.3 A 12.999 12.999 0 0 1 334.914 35.911 A 17.937 17.937 0 0 1 335.201 39.2 L 335.201 69.8 A 8.993 8.993 0 0 0 335.256 70.844 Q 335.498 72.9 336.801 72.9 L 342.901 73.2 L 342.801 74.7 Q 337.792 75.416 333.743 75.491 A 50.524 50.524 0 0 1 332.801 75.5 A 3.281 3.281 0 0 1 331.703 75.198 Q 331.274 75.002 330.834 74.68 A 7.289 7.289 0 0 1 330.301 74.25 A 3.79 3.79 0 0 1 329.015 71.578 A 5.238 5.238 0 0 1 329.001 71.2 Z M 388.201 4.1 L 388.201 69.8 A 8.993 8.993 0 0 0 388.256 70.844 Q 388.498 72.9 389.801 72.9 L 395.801 73.2 L 395.701 74.7 Q 390.901 75.5 385.701 75.5 A 3.304 3.304 0 0 1 384.719 75.244 Q 384.308 75.071 383.878 74.786 A 7.341 7.341 0 0 1 383.351 74.4 Q 382.101 73.4 381.901 71.8 A 23.351 23.351 0 0 1 371.562 75.263 A 29.219 29.219 0 0 1 368.701 75.4 Q 361.401 75.4 355.201 71.3 A 13.357 13.357 0 0 1 351.863 68.109 Q 350.559 66.37 349.551 64.05 A 24.277 24.277 0 0 1 348.008 58.937 Q 347.534 56.464 347.43 53.621 A 44.483 44.483 0 0 1 347.401 52 A 40.954 40.954 0 0 1 348.089 44.244 Q 348.943 39.818 350.861 36.375 A 20.709 20.709 0 0 1 354.101 32 Q 361.201 24.6 370.301 24.6 A 23.566 23.566 0 0 1 377.916 25.909 A 30.179 30.179 0 0 1 381.701 27.5 L 381.701 3.6 A 3.012 3.012 0 0 0 381.68 3.226 Q 381.631 2.84 381.471 2.659 A 0.471 0.471 0 0 0 381.101 2.5 L 375.001 2.3 L 375.101 0.9 A 193.01 193.01 0 0 1 377.837 0.528 Q 381.654 0.038 383.478 0.003 A 14.066 14.066 0 0 1 383.751 0 Q 385.262 0 386.236 0.538 A 3.07 3.07 0 0 1 387.151 1.3 A 4.924 4.924 0 0 1 387.905 2.563 A 4.1 4.1 0 0 1 388.201 4.1 Z M 233.801 73.1 L 237.701 72.9 L 238.001 73.9 A 0.347 0.347 0 0 0 237.957 73.905 Q 237.77 73.933 236.909 74.13 A 132.189 132.189 0 0 0 236.601 74.2 A 26.132 26.132 0 0 1 233.058 74.761 A 34.479 34.479 0 0 1 229.901 74.9 A 25.907 25.907 0 0 1 226.266 74.438 A 20.953 20.953 0 0 1 223.701 73.75 Q 221.177 72.894 218.977 70.33 A 17.71 17.71 0 0 1 218.501 69.75 A 10.873 10.873 0 0 1 216.453 65.319 A 15.732 15.732 0 0 1 216.101 61.9 L 216.101 26.8 L 211.001 26.8 L 211.801 26 L 216.201 25.1 L 217.001 15.5 L 222.601 15 L 222.601 25 L 234.701 25 L 234.701 26.8 L 222.601 26.8 L 222.601 60.2 Q 222.601 67.8 225.801 70.45 A 11.412 11.412 0 0 0 231.501 72.935 A 15.44 15.44 0 0 0 233.801 73.1 Z M 130.967 74.503 A 29.617 29.617 0 0 0 138.451 75.4 A 30.368 30.368 0 0 0 139.262 75.389 A 22.947 22.947 0 0 0 155.751 68.35 Q 160.193 63.779 161.754 56.979 A 35.855 35.855 0 0 0 162.601 48.95 A 41.851 41.851 0 0 0 162.457 45.412 Q 162.14 41.676 161.125 38.621 A 18.7 18.7 0 0 0 156.101 30.6 A 21.781 21.781 0 0 0 146.731 25.516 A 29.43 29.43 0 0 0 139.201 24.6 Q 128.801 24.6 121.951 31.65 Q 117.509 36.222 115.948 43.022 A 35.855 35.855 0 0 0 115.101 51.05 A 41.851 41.851 0 0 0 115.264 54.815 Q 115.598 58.506 116.614 61.524 A 18.665 18.665 0 0 0 121.551 69.4 A 21.568 21.568 0 0 0 130.967 74.503 Z M 139.101 26.4 A 14.791 14.791 0 0 0 127.89 31.377 A 20.876 20.876 0 0 0 126.601 32.9 Q 121.601 39.4 121.601 50.55 Q 121.601 61.7 126.351 67.65 A 15.977 15.977 0 0 0 131.314 71.871 Q 134.558 73.6 138.601 73.6 A 14.791 14.791 0 0 0 149.812 68.624 A 20.876 20.876 0 0 0 151.101 67.1 Q 155.398 61.514 156.002 52.531 A 45.175 45.175 0 0 0 156.101 49.5 Q 156.101 42.007 153.937 36.838 A 18.803 18.803 0 0 0 151.351 32.4 A 16.057 16.057 0 0 0 146.488 28.198 A 15.117 15.117 0 0 0 139.101 26.4 Z M 381.701 70.9 L 381.701 29.1 A 19.813 19.813 0 0 0 377.87 27.254 A 14.716 14.716 0 0 0 373.001 26.4 A 18.089 18.089 0 0 0 365.895 27.755 A 17.055 17.055 0 0 0 359.151 33 A 21.731 21.731 0 0 0 355.516 40.009 Q 354.532 43.097 354.148 46.838 A 49.559 49.559 0 0 0 353.901 51.9 Q 353.901 72.734 368.741 73.566 A 22.516 22.516 0 0 0 370.001 73.6 Q 376.101 73.6 381.701 70.9 Z M 256.201 30.7 L 256.201 72.4 A 25.064 25.064 0 0 0 260.223 73.017 A 30.653 30.653 0 0 0 262.501 73.1 A 23.057 23.057 0 0 0 268.97 72.241 A 16.991 16.991 0 0 0 277.651 66.45 A 22.326 22.326 0 0 0 281.579 58.776 Q 283.001 54.036 283.001 47.9 A 53.427 53.427 0 0 0 282.674 41.745 Q 281.934 35.393 279.52 31.799 A 11.091 11.091 0 0 0 277.601 29.6 Q 273.401 25.9 268.201 25.9 A 13.999 13.999 0 0 0 263.985 26.604 Q 260.398 27.738 256.201 30.7 Z M 328.701 68.6 L 328.701 52.1 Q 313.701 52.6 309.851 53.85 A 12.682 12.682 0 0 0 307.583 54.821 Q 305.525 55.97 304.551 57.75 Q 303.101 60.4 303.101 63 L 303.101 64 A 16.12 16.12 0 0 0 303.5 66.832 Q 303.866 68.358 304.541 69.525 A 7.183 7.183 0 0 0 306.201 71.5 A 10.085 10.085 0 0 0 311.87 73.752 A 13.068 13.068 0 0 0 313.001 73.8 Q 319.476 73.8 326.64 69.819 A 45.661 45.661 0 0 0 328.701 68.6 Z"
        />
    </g>
</svg>